<svg width="145" height="145" viewBox="0 0 145 145" fill="none" xmlns="http://www.w3.org/2000/svg">
<path d="M28.4293 0.0362473C12.8103 0.0362473 0.0270996 12.8192 0.0270996 28.4384V116.575C0.0270996 132.194 12.81 144.973 28.4293 144.973H116.566C132.185 144.973 144.964 132.194 144.964 116.575V28.4384C144.964 12.8194 132.185 0.0362473 116.566 0.0362473H28.4293ZM35.5728 23.9537C43.0618 23.9537 47.6747 28.8701 47.8171 35.3326C47.8171 41.6524 43.0615 46.707 35.428 46.707H35.2875C27.9411 46.707 23.1927 41.6527 23.1927 35.3326C23.1927 28.8702 28.0847 23.9537 35.5727 23.9537H35.5728ZM100.109 54.1587C114.512 54.1587 125.309 63.5723 125.309 83.8019V121.567H103.421V86.3339C103.421 77.4802 100.253 71.4398 92.3318 71.4398C86.2847 71.4398 82.6803 75.5111 81.0978 79.444C80.5196 80.8511 80.3775 82.8163 80.3775 84.7847V121.567H58.4894C58.4894 121.567 58.7766 61.8831 58.4894 55.7032H80.382V65.0302C83.2907 60.5424 88.4936 54.1585 100.109 54.1585V54.1587ZM24.4838 55.708H46.372V121.567H24.4838V55.708V55.708Z" fill="#87B0C8"/>
</svg>
